<?xml version="1.0" encoding="UTF-8" standalone="no"?>
<!DOCTYPE svg PUBLIC "-//W3C//DTD SVG 1.1//EN"
 "http://www.w3.org/Graphics/SVG/1.1/DTD/svg11.dtd">
<!-- Generated by graphviz version 13.1.0 (20250701.0955)
 -->
<!-- Title: IR System Architecture Pages: 1 -->
<svg width="2376pt" height="1802pt"
 viewBox="0.00 0.00 2376.00 1802.00" xmlns="http://www.w3.org/2000/svg" xmlns:xlink="http://www.w3.org/1999/xlink">
<g id="graph0" class="graph" transform="scale(1 1) rotate(0) translate(144 1657.5)">
<title>IR System Architecture</title>
<polygon fill="white" stroke="none" points="-144,144 -144,-1657.5 2231.65,-1657.5 2231.65,144 -144,144"/>
<text xml:space="preserve" text-anchor="middle" x="1043.83" y="-9.25" font-family="Sans-Serif" font-size="15.00" fill="#2d3436">IR System Architecture</text>
<g id="clust1" class="cluster">
<title>cluster_FastAPI Backend Services</title>
<path fill="#e5f5fd" stroke="#aeb6be" d="M726.4,-382.5C726.4,-382.5 1811.5,-382.5 1811.5,-382.5 1817.5,-382.5 1823.5,-388.5 1823.5,-394.5 1823.5,-394.5 1823.5,-1256.5 1823.5,-1256.5 1823.5,-1262.5 1817.5,-1268.5 1811.5,-1268.5 1811.5,-1268.5 726.4,-1268.5 726.4,-1268.5 720.4,-1268.5 714.4,-1262.5 714.4,-1256.5 714.4,-1256.5 714.4,-394.5 714.4,-394.5 714.4,-388.5 720.4,-382.5 726.4,-382.5"/>
<text xml:space="preserve" text-anchor="middle" x="789.15" y="-1253.1" font-family="Sans-Serif" font-size="12.00" fill="#2d3436">FastAPI Backend Services</text>
</g>
<g id="clust2" class="cluster">
<title>cluster_Retrieval &amp; ML Models</title>
<path fill="#ebf3e7" stroke="#aeb6be" d="M1219.75,-534.5C1219.75,-534.5 1803.5,-534.5 1803.5,-534.5 1809.5,-534.5 1815.5,-540.5 1815.5,-546.5 1815.5,-546.5 1815.5,-878.5 1815.5,-878.5 1815.5,-884.5 1809.5,-890.5 1803.5,-890.5 1803.5,-890.5 1219.75,-890.5 1219.75,-890.5 1213.75,-890.5 1207.75,-884.5 1207.75,-878.5 1207.75,-878.5 1207.75,-546.5 1207.75,-546.5 1207.75,-540.5 1213.75,-534.5 1219.75,-534.5"/>
<text xml:space="preserve" text-anchor="middle" x="1274.25" y="-875.1" font-family="Sans-Serif" font-size="12.00" fill="#2d3436">Retrieval &amp; ML Models</text>
</g>
<g id="clust3" class="cluster">
<title>cluster_Data Storage</title>
<path fill="#e5f5fd" stroke="#aeb6be" d="M1974.85,-1090.5C1974.85,-1090.5 2067.65,-1090.5 2067.65,-1090.5 2073.65,-1090.5 2079.65,-1096.5 2079.65,-1102.5 2079.65,-1102.5 2079.65,-1493.5 2079.65,-1493.5 2079.65,-1499.5 2073.65,-1505.5 2067.65,-1505.5 2067.65,-1505.5 1974.85,-1505.5 1974.85,-1505.5 1968.85,-1505.5 1962.85,-1499.5 1962.85,-1493.5 1962.85,-1493.5 1962.85,-1102.5 1962.85,-1102.5 1962.85,-1096.5 1968.85,-1090.5 1974.85,-1090.5"/>
<text xml:space="preserve" text-anchor="middle" x="2004.98" y="-1490.1" font-family="Sans-Serif" font-size="12.00" fill="#2d3436">Data Storage</text>
</g>
<!-- 7365f4e751d34c71be3e5e5fe7317b65 -->
<g id="node1" class="node">
<title>7365f4e751d34c71be3e5e5fe7317b65</title>
<image xlink:href="C:\Users\Uravity-PRO\desktop\ir_project_lambda\venv\Lib\site-packages\resources/onprem/client\user.png" width="100.8px" height="100.8px" preserveAspectRatio="xMinYMin meet" x="-1.27898e-13" y="-457.9"/>
<text xml:space="preserve" text-anchor="middle" x="50.4" y="-343.25" font-family="Sans-Serif" font-size="13.00" fill="#2d3436">User</text>
</g>
<!-- a45008b183174aac8b2ef3663e9fe42a -->
<g id="node2" class="node">
<title>a45008b183174aac8b2ef3663e9fe42a</title>
<image xlink:href="C:\Users\Uravity-PRO\desktop\ir_project_lambda\venv\Lib\site-packages\resources/programming/language\python.png" width="100.8px" height="100.8px" preserveAspectRatio="xMinYMin meet" x="242.55" y="-457.9"/>
<text xml:space="preserve" text-anchor="middle" x="292.95" y="-345.35" font-family="Sans-Serif" font-size="13.00" fill="#2d3436">Client App</text>
<text xml:space="preserve" text-anchor="middle" x="292.95" y="-328.85" font-family="Sans-Serif" font-size="13.00" fill="#2d3436">(Streamlit)</text>
</g>
<!-- 7365f4e751d34c71be3e5e5fe7317b65&#45;&gt;a45008b183174aac8b2ef3663e9fe42a -->
<g id="edge1" class="edge">
<title>7365f4e751d34c71be3e5e5fe7317b65&#45;&gt;a45008b183174aac8b2ef3663e9fe42a</title>
<path fill="none" stroke="#7b8894" d="M100.66,-407.5C100.66,-407.5 231.24,-407.5 231.24,-407.5"/>
<polygon fill="#7b8894" stroke="#7b8894" points="231.24,-411 241.24,-407.5 231.24,-404 231.24,-411"/>
<text xml:space="preserve" text-anchor="middle" x="171.67" y="-411.65" font-family="Sans-Serif" font-size="13.00" fill="#2d3436">Interacts via UI</text>
</g>
<!-- 81fe16e535364508b4f7078257eceae8 -->
<g id="node3" class="node">
<title>81fe16e535364508b4f7078257eceae8</title>
<image xlink:href="C:\Users\Uravity-PRO\desktop\ir_project_lambda\venv\Lib\site-packages\resources/programming/framework\fastapi.png" width="100.8px" height="100.8px" preserveAspectRatio="xMinYMin meet" x="518.1" y="-457.9"/>
<text xml:space="preserve" text-anchor="middle" x="568.5" y="-345.35" font-family="Sans-Serif" font-size="13.00" fill="#2d3436">FastAPI Server</text>
<text xml:space="preserve" text-anchor="middle" x="568.5" y="-328.85" font-family="Sans-Serif" font-size="13.00" fill="#2d3436">(API Gateway)</text>
</g>
<!-- a45008b183174aac8b2ef3663e9fe42a&#45;&gt;81fe16e535364508b4f7078257eceae8 -->
<g id="edge2" class="edge">
<title>a45008b183174aac8b2ef3663e9fe42a&#45;&gt;81fe16e535364508b4f7078257eceae8</title>
<path fill="none" stroke="#7b8894" d="M343.17,-407.5C343.17,-407.5 506.65,-407.5 506.65,-407.5"/>
<polygon fill="#7b8894" stroke="#7b8894" points="506.65,-411 516.65,-407.5 506.65,-404 506.65,-411"/>
<text xml:space="preserve" text-anchor="middle" x="430.73" y="-428.15" font-family="Sans-Serif" font-size="13.00" fill="#2d3436">HTTP/REST API Calls</text>
<text xml:space="preserve" text-anchor="middle" x="430.73" y="-411.65" font-family="Sans-Serif" font-size="13.00" fill="#2d3436">(JSON)</text>
</g>
<!-- 5b8baf0efd1241f89563e34318ab3f3e -->
<g id="node4" class="node">
<title>5b8baf0efd1241f89563e34318ab3f3e</title>
<image xlink:href="C:\Users\Uravity-PRO\desktop\ir_project_lambda\venv\Lib\site-packages\resources/programming/language\python.png" width="100.8px" height="100.8px" preserveAspectRatio="xMinYMin meet" x="722.4" y="-987.9"/>
<text xml:space="preserve" text-anchor="middle" x="772.8" y="-873.25" font-family="Sans-Serif" font-size="13.00" fill="#2d3436">Data Loading</text>
</g>
<!-- 81fe16e535364508b4f7078257eceae8&#45;&gt;5b8baf0efd1241f89563e34318ab3f3e -->
<g id="edge3" class="edge">
<title>81fe16e535364508b4f7078257eceae8&#45;&gt;5b8baf0efd1241f89563e34318ab3f3e</title>
<path fill="none" stroke="#7b8894" d="M546.65,-490.02C546.65,-638.99 546.65,-937.5 546.65,-937.5 546.65,-937.5 711.1,-937.5 711.1,-937.5"/>
<polygon fill="#7b8894" stroke="#7b8894" points="711.1,-941 721.1,-937.5 711.1,-934 711.1,-941"/>
<text xml:space="preserve" text-anchor="middle" x="670.65" y="-900.65" font-family="Sans-Serif" font-size="13.00" fill="#2d3436">API Calls</text>
</g>
<!-- d62dbaa33b724d46b1969bd8deca289d -->
<g id="node5" class="node">
<title>d62dbaa33b724d46b1969bd8deca289d</title>
<image xlink:href="C:\Users\Uravity-PRO\desktop\ir_project_lambda\venv\Lib\site-packages\resources/programming/language\python.png" width="100.8px" height="100.8px" preserveAspectRatio="xMinYMin meet" x="956.7" y="-987.9"/>
<text xml:space="preserve" text-anchor="middle" x="1007.1" y="-873.25" font-family="Sans-Serif" font-size="13.00" fill="#2d3436">Text Preprocessing</text>
</g>
<!-- 81fe16e535364508b4f7078257eceae8&#45;&gt;d62dbaa33b724d46b1969bd8deca289d -->
<g id="edge4" class="edge">
<title>81fe16e535364508b4f7078257eceae8&#45;&gt;d62dbaa33b724d46b1969bd8deca289d</title>
<path fill="none" stroke="#7b8894" d="M561.65,-490.1C561.65,-622.26 561.65,-866.55 561.65,-866.55 561.65,-866.55 1006.65,-866.55 1006.65,-866.55 1006.65,-866.55 1006.65,-866.82 1006.65,-866.82"/>
<polygon fill="#7b8894" stroke="#7b8894" points="1003.15,-857.73 1006.65,-867.73 1010.15,-857.73 1003.15,-857.73"/>
<text xml:space="preserve" text-anchor="middle" x="772.8" y="-762.65" font-family="Sans-Serif" font-size="13.00" fill="#2d3436">API Calls</text>
</g>
<!-- 89dbe8966fc4446686729d30a22707f5 -->
<g id="node6" class="node">
<title>89dbe8966fc4446686729d30a22707f5</title>
<image xlink:href="C:\Users\Uravity-PRO\desktop\ir_project_lambda\venv\Lib\site-packages\resources/programming/language\python.png" width="100.8px" height="100.8px" preserveAspectRatio="xMinYMin meet" x="1215.75" y="-1218.9"/>
<text xml:space="preserve" text-anchor="middle" x="1266.15" y="-1104.25" font-family="Sans-Serif" font-size="13.00" fill="#2d3436">Indexing</text>
</g>
<!-- 81fe16e535364508b4f7078257eceae8&#45;&gt;89dbe8966fc4446686729d30a22707f5 -->
<g id="edge5" class="edge">
<title>81fe16e535364508b4f7078257eceae8&#45;&gt;89dbe8966fc4446686729d30a22707f5</title>
<path fill="none" stroke="#7b8894" d="M532.65,-490.03C532.65,-687.03 532.65,-1168.5 532.65,-1168.5 532.65,-1168.5 1204.51,-1168.5 1204.51,-1168.5"/>
<polygon fill="#7b8894" stroke="#7b8894" points="1204.51,-1172 1214.51,-1168.5 1204.51,-1165 1204.51,-1172"/>
<text xml:space="preserve" text-anchor="middle" x="889.95" y="-498.65" font-family="Sans-Serif" font-size="13.00" fill="#2d3436">API Calls</text>
</g>
<!-- bd95bfd2481a4918bc5e5e2223047f92 -->
<g id="node7" class="node">
<title>bd95bfd2481a4918bc5e5e2223047f92</title>
<image xlink:href="C:\Users\Uravity-PRO\desktop\ir_project_lambda\venv\Lib\site-packages\resources/programming/language\python.png" width="100.8px" height="100.8px" preserveAspectRatio="xMinYMin meet" x="1442.55" y="-660.9"/>
<text xml:space="preserve" text-anchor="middle" x="1492.95" y="-546.25" font-family="Sans-Serif" font-size="13.00" fill="#2d3436">VSM Model</text>
</g>
<!-- 81fe16e535364508b4f7078257eceae8&#45;&gt;bd95bfd2481a4918bc5e5e2223047f92 -->
<g id="edge6" class="edge">
<title>81fe16e535364508b4f7078257eceae8&#45;&gt;bd95bfd2481a4918bc5e5e2223047f92</title>
<path fill="none" stroke="#7b8894" d="M604.65,-489.91C604.65,-521.72 604.65,-550.6 604.65,-550.6 604.65,-550.6 1431.13,-550.6 1431.13,-550.6"/>
<polygon fill="#7b8894" stroke="#7b8894" points="1431.13,-554.1 1441.13,-550.6 1431.13,-547.1 1431.13,-554.1"/>
<text xml:space="preserve" text-anchor="middle" x="1007.1" y="-226.65" font-family="Sans-Serif" font-size="13.00" fill="#2d3436">API Calls</text>
</g>
<!-- 412b467af4834d8d9907b45971cf0403 -->
<g id="node8" class="node">
<title>412b467af4834d8d9907b45971cf0403</title>
<image xlink:href="C:\Users\Uravity-PRO\desktop\ir_project_lambda\venv\Lib\site-packages\resources/programming/language\python.png" width="100.8px" height="100.8px" preserveAspectRatio="xMinYMin meet" x="1442.55" y="-840.9"/>
<text xml:space="preserve" text-anchor="middle" x="1492.95" y="-726.25" font-family="Sans-Serif" font-size="13.00" fill="#2d3436">BERT Model</text>
</g>
<!-- 81fe16e535364508b4f7078257eceae8&#45;&gt;412b467af4834d8d9907b45971cf0403 -->
<g id="edge7" class="edge">
<title>81fe16e535364508b4f7078257eceae8&#45;&gt;412b467af4834d8d9907b45971cf0403</title>
<path fill="none" stroke="#7b8894" d="M575.65,-490.12C575.65,-619.45 575.65,-855.1 575.65,-855.1 575.65,-855.1 1431.14,-855.1 1431.14,-855.1"/>
<polygon fill="#7b8894" stroke="#7b8894" points="1431.14,-858.6 1441.14,-855.1 1431.14,-851.6 1431.14,-858.6"/>
<text xml:space="preserve" text-anchor="middle" x="1007.1" y="-329.65" font-family="Sans-Serif" font-size="13.00" fill="#2d3436">API Calls</text>
</g>
<!-- 61e5d5537ecb4b8fa6d233422da1d48e -->
<g id="node9" class="node">
<title>61e5d5537ecb4b8fa6d233422da1d48e</title>
<image xlink:href="C:\Users\Uravity-PRO\desktop\ir_project_lambda\venv\Lib\site-packages\resources/programming/language\python.png" width="100.8px" height="100.8px" preserveAspectRatio="xMinYMin meet" x="1706.7" y="-840.9"/>
<text xml:space="preserve" text-anchor="middle" x="1757.1" y="-726.25" font-family="Sans-Serif" font-size="13.00" fill="#2d3436">Hybrid Model</text>
</g>
<!-- 81fe16e535364508b4f7078257eceae8&#45;&gt;61e5d5537ecb4b8fa6d233422da1d48e -->
<g id="edge8" class="edge">
<title>81fe16e535364508b4f7078257eceae8&#45;&gt;61e5d5537ecb4b8fa6d233422da1d48e</title>
<path fill="none" stroke="#7b8894" d="M618.73,-407.5C828.62,-407.5 1624.65,-407.5 1624.65,-407.5 1624.65,-407.5 1624.65,-767.7 1624.65,-767.7 1624.65,-767.7 1695.51,-767.7 1695.51,-767.7"/>
<polygon fill="#7b8894" stroke="#7b8894" points="1695.51,-771.2 1705.51,-767.7 1695.51,-764.2 1695.51,-771.2"/>
<text xml:space="preserve" text-anchor="middle" x="1136.63" y="-118.65" font-family="Sans-Serif" font-size="13.00" fill="#2d3436">API Calls</text>
</g>
<!-- b99d7810eb0a458f8642fcd4223911d0 -->
<g id="node10" class="node">
<title>b99d7810eb0a458f8642fcd4223911d0</title>
<image xlink:href="C:\Users\Uravity-PRO\desktop\ir_project_lambda\venv\Lib\site-packages\resources/programming/language\python.png" width="100.8px" height="100.8px" preserveAspectRatio="xMinYMin meet" x="1215.75" y="-818.9"/>
<text xml:space="preserve" text-anchor="middle" x="1266.15" y="-706.35" font-family="Sans-Serif" font-size="13.00" fill="#2d3436">Query Optimizer</text>
<text xml:space="preserve" text-anchor="middle" x="1266.15" y="-689.85" font-family="Sans-Serif" font-size="13.00" fill="#2d3436">(PRF)</text>
</g>
<!-- 81fe16e535364508b4f7078257eceae8&#45;&gt;b99d7810eb0a458f8642fcd4223911d0 -->
<g id="edge9" class="edge">
<title>81fe16e535364508b4f7078257eceae8&#45;&gt;b99d7810eb0a458f8642fcd4223911d0</title>
<path fill="none" stroke="#7b8894" d="M618.64,-448.9C778.49,-448.9 1265.65,-448.9 1265.65,-448.9 1265.65,-448.9 1265.65,-674.27 1265.65,-674.27"/>
<polygon fill="#7b8894" stroke="#7b8894" points="1262.15,-674.27 1265.65,-684.27 1269.15,-674.27 1262.15,-674.27"/>
<text xml:space="preserve" text-anchor="middle" x="889.95" y="-411.65" font-family="Sans-Serif" font-size="13.00" fill="#2d3436">API Calls</text>
</g>
<!-- 7c20907fd9694e13833e3bb85d1bc3f6 -->
<g id="node11" class="node">
<title>7c20907fd9694e13833e3bb85d1bc3f6</title>
<image xlink:href="C:\Users\Uravity-PRO\desktop\ir_project_lambda\venv\Lib\site-packages\resources/programming/language\python.png" width="100.8px" height="100.8px" preserveAspectRatio="xMinYMin meet" x="1706.7" y="-660.9"/>
<text xml:space="preserve" text-anchor="middle" x="1757.1" y="-546.25" font-family="Sans-Serif" font-size="13.00" fill="#2d3436">Document Clustering</text>
</g>
<!-- 81fe16e535364508b4f7078257eceae8&#45;&gt;7c20907fd9694e13833e3bb85d1bc3f6 -->
<g id="edge10" class="edge">
<title>81fe16e535364508b4f7078257eceae8&#45;&gt;7c20907fd9694e13833e3bb85d1bc3f6</title>
<path fill="none" stroke="#7b8894" d="M618.87,-366.1C843.22,-366.1 1740.65,-366.1 1740.65,-366.1 1740.65,-366.1 1740.65,-530.91 1740.65,-530.91"/>
<polygon fill="#7b8894" stroke="#7b8894" points="1737.15,-530.91 1740.65,-540.91 1744.15,-530.91 1737.15,-530.91"/>
<text xml:space="preserve" text-anchor="middle" x="1136.63" y="-31.65" font-family="Sans-Serif" font-size="13.00" fill="#2d3436">API Calls</text>
</g>
<!-- 6181745263a848d9b53f974c46f641b0 -->
<g id="node12" class="node">
<title>6181745263a848d9b53f974c46f641b0</title>
<image xlink:href="C:\Users\Uravity-PRO\desktop\ir_project_lambda\venv\Lib\site-packages\resources/programming/language\python.png" width="100.8px" height="100.8px" preserveAspectRatio="xMinYMin meet" x="956.7" y="-677.9"/>
<text xml:space="preserve" text-anchor="middle" x="1007.1" y="-563.25" font-family="Sans-Serif" font-size="13.00" fill="#2d3436">Evaluation Service</text>
</g>
<!-- 81fe16e535364508b4f7078257eceae8&#45;&gt;6181745263a848d9b53f974c46f641b0 -->
<g id="edge11" class="edge">
<title>81fe16e535364508b4f7078257eceae8&#45;&gt;6181745263a848d9b53f974c46f641b0</title>
<path fill="none" stroke="#7b8894" d="M589.65,-490.05C589.65,-552.47 589.65,-627.5 589.65,-627.5 589.65,-627.5 945.23,-627.5 945.23,-627.5"/>
<polygon fill="#7b8894" stroke="#7b8894" points="945.23,-631 955.23,-627.5 945.23,-624 945.23,-631"/>
<text xml:space="preserve" text-anchor="middle" x="772.8" y="-619.65" font-family="Sans-Serif" font-size="13.00" fill="#2d3436">API Calls</text>
</g>
<!-- 5b8baf0efd1241f89563e34318ab3f3e&#45;&gt;d62dbaa33b724d46b1969bd8deca289d -->
<g id="edge13" class="edge">
<title>5b8baf0efd1241f89563e34318ab3f3e&#45;&gt;d62dbaa33b724d46b1969bd8deca289d</title>
<path fill="none" stroke="#7b8894" d="M823.06,-937.5C823.06,-937.5 945.41,-937.5 945.41,-937.5"/>
<polygon fill="#7b8894" stroke="#7b8894" points="945.41,-941 955.41,-937.5 945.41,-934 945.41,-941"/>
<text xml:space="preserve" text-anchor="middle" x="889.95" y="-941.65" font-family="Sans-Serif" font-size="13.00" fill="#2d3436">Provides Data</text>
</g>
<!-- 84b66faea1904e28ae52133ab0050606 -->
<g id="node13" class="node">
<title>84b66faea1904e28ae52133ab0050606</title>
<image xlink:href="C:\Users\Uravity-PRO\desktop\ir_project_lambda\venv\Lib\site-packages\resources/generic/storage\storage.png" width="100.8px" height="100.8px" preserveAspectRatio="xMinYMin meet" x="1970.85" y="-1440.9"/>
<text xml:space="preserve" text-anchor="middle" x="2021.25" y="-1328.35" font-family="Sans-Serif" font-size="13.00" fill="#2d3436">Raw Datasets</text>
<text xml:space="preserve" text-anchor="middle" x="2021.25" y="-1311.85" font-family="Sans-Serif" font-size="13.00" fill="#2d3436">(.jsonl)</text>
</g>
<!-- 5b8baf0efd1241f89563e34318ab3f3e&#45;&gt;84b66faea1904e28ae52133ab0050606 -->
<g id="edge12" class="edge">
<title>5b8baf0efd1241f89563e34318ab3f3e&#45;&gt;84b66faea1904e28ae52133ab0050606</title>
<path fill="none" stroke="#7b8894" d="M772.65,-1005.85C772.65,-1138.53 772.65,-1418.1 772.65,-1418.1 772.65,-1418.1 1959.63,-1418.1 1959.63,-1418.1"/>
<polygon fill="#7b8894" stroke="#7b8894" points="1959.63,-1421.6 1969.63,-1418.1 1959.63,-1414.6 1959.63,-1421.6"/>
<text xml:space="preserve" text-anchor="middle" x="1379.55" y="-1483.65" font-family="Sans-Serif" font-size="13.00" fill="#2d3436">Reads</text>
</g>
<!-- d62dbaa33b724d46b1969bd8deca289d&#45;&gt;89dbe8966fc4446686729d30a22707f5 -->
<g id="edge14" class="edge">
<title>d62dbaa33b724d46b1969bd8deca289d&#45;&gt;89dbe8966fc4446686729d30a22707f5</title>
<path fill="none" stroke="#7b8894" d="M1057.36,-971.7C1128.4,-971.7 1249.65,-971.7 1249.65,-971.7 1249.65,-971.7 1249.65,-1088.71 1249.65,-1088.71"/>
<polygon fill="#7b8894" stroke="#7b8894" points="1246.15,-1088.71 1249.65,-1098.71 1253.15,-1088.71 1246.15,-1088.71"/>
<text xml:space="preserve" text-anchor="middle" x="1136.63" y="-1133.65" font-family="Sans-Serif" font-size="13.00" fill="#2d3436">Preprocessed Text</text>
</g>
<!-- d62dbaa33b724d46b1969bd8deca289d&#45;&gt;bd95bfd2481a4918bc5e5e2223047f92 -->
<g id="edge16" class="edge">
<title>d62dbaa33b724d46b1969bd8deca289d&#45;&gt;bd95bfd2481a4918bc5e5e2223047f92</title>
<path fill="none" stroke="#7b8894" d="M1057.34,-937.5C1159.03,-937.5 1379.65,-937.5 1379.65,-937.5 1379.65,-937.5 1379.65,-638.97 1379.65,-638.97 1379.65,-638.97 1431.08,-638.97 1431.08,-638.97"/>
<polygon fill="#7b8894" stroke="#7b8894" points="1431.08,-642.47 1441.08,-638.97 1431.08,-635.47 1431.08,-642.47"/>
<text xml:space="preserve" text-anchor="middle" x="1266.15" y="-941.65" font-family="Sans-Serif" font-size="13.00" fill="#2d3436">Uses</text>
</g>
<!-- d62dbaa33b724d46b1969bd8deca289d&#45;&gt;412b467af4834d8d9907b45971cf0403 -->
<g id="edge17" class="edge">
<title>d62dbaa33b724d46b1969bd8deca289d&#45;&gt;412b467af4834d8d9907b45971cf0403</title>
<path fill="none" stroke="#7b8894" d="M1040.65,-869.23C1040.65,-861.88 1040.65,-857 1040.65,-857 1040.65,-857 1431.3,-857 1431.3,-857"/>
<polygon fill="#7b8894" stroke="#7b8894" points="1431.3,-860.5 1441.3,-857 1431.3,-853.5 1431.3,-860.5"/>
<text xml:space="preserve" text-anchor="middle" x="1266.15" y="-1044.65" font-family="Sans-Serif" font-size="13.00" fill="#2d3436">Uses</text>
</g>
<!-- d62dbaa33b724d46b1969bd8deca289d&#45;&gt;b99d7810eb0a458f8642fcd4223911d0 -->
<g id="edge18" class="edge">
<title>d62dbaa33b724d46b1969bd8deca289d&#45;&gt;b99d7810eb0a458f8642fcd4223911d0</title>
<path fill="none" stroke="#7b8894" d="M1057.32,-903.3C1136.8,-903.3 1282.65,-903.3 1282.65,-903.3 1282.65,-903.3 1282.65,-862.7 1282.65,-862.7"/>
<polygon fill="#7b8894" stroke="#7b8894" points="1286.15,-862.7 1282.65,-852.7 1279.15,-862.7 1286.15,-862.7"/>
<text xml:space="preserve" text-anchor="middle" x="1136.63" y="-845.65" font-family="Sans-Serif" font-size="13.00" fill="#2d3436">Uses</text>
</g>
<!-- 6e291c8809e449c187b6514c94c63d33 -->
<g id="node14" class="node">
<title>6e291c8809e449c187b6514c94c63d33</title>
<image xlink:href="C:\Users\Uravity-PRO\desktop\ir_project_lambda\venv\Lib\site-packages\resources/generic/storage\storage.png" width="100.8px" height="100.8px" preserveAspectRatio="xMinYMin meet" x="1970.85" y="-1231.9"/>
<text xml:space="preserve" text-anchor="middle" x="2021.25" y="-1119.35" font-family="Sans-Serif" font-size="13.00" fill="#2d3436">Indexes &amp; Embeddings</text>
<text xml:space="preserve" text-anchor="middle" x="2021.25" y="-1102.85" font-family="Sans-Serif" font-size="13.00" fill="#2d3436">(.pkl, .npy)</text>
</g>
<!-- 89dbe8966fc4446686729d30a22707f5&#45;&gt;6e291c8809e449c187b6514c94c63d33 -->
<g id="edge15" class="edge">
<title>89dbe8966fc4446686729d30a22707f5&#45;&gt;6e291c8809e449c187b6514c94c63d33</title>
<path fill="none" stroke="#7b8894" d="M1316.28,-1168.5C1316.28,-1168.5 1959.63,-1168.5 1959.63,-1168.5"/>
<polygon fill="#7b8894" stroke="#7b8894" points="1959.63,-1172 1969.63,-1168.5 1959.63,-1165 1959.63,-1172"/>
<text xml:space="preserve" text-anchor="middle" x="1623.6" y="-1098.65" font-family="Sans-Serif" font-size="13.00" fill="#2d3436">Creates/Updates</text>
</g>
<!-- 89dbe8966fc4446686729d30a22707f5&#45;&gt;6e291c8809e449c187b6514c94c63d33 -->
<g id="edge31" class="edge">
<title>89dbe8966fc4446686729d30a22707f5&#45;&gt;6e291c8809e449c187b6514c94c63d33</title>
<path fill="none" stroke="#7b8894" d="M1316.28,-1202.7C1316.28,-1202.7 1959.63,-1202.7 1959.63,-1202.7"/>
<polygon fill="#7b8894" stroke="#7b8894" points="1959.63,-1206.2 1969.63,-1202.7 1959.63,-1199.2 1959.63,-1206.2"/>
<text xml:space="preserve" text-anchor="middle" x="1623.6" y="-1185.65" font-family="Sans-Serif" font-size="13.00" fill="#2d3436">Saves/Loads State</text>
</g>
<!-- bd95bfd2481a4918bc5e5e2223047f92&#45;&gt;61e5d5537ecb4b8fa6d233422da1d48e -->
<g id="edge19" class="edge">
<title>bd95bfd2481a4918bc5e5e2223047f92&#45;&gt;61e5d5537ecb4b8fa6d233422da1d48e</title>
<path fill="none" stroke="#7b8894" d="M1492.65,-678.55C1492.65,-688.13 1492.65,-694.8 1492.65,-694.8 1492.65,-694.8 1773.65,-694.8 1773.65,-694.8 1773.65,-694.8 1773.65,-710.71 1773.65,-710.71"/>
<polygon fill="#7b8894" stroke="#7b8894" points="1770.15,-710.71 1773.65,-720.71 1777.15,-710.71 1770.15,-710.71"/>
</g>
<!-- 412b467af4834d8d9907b45971cf0403&#45;&gt;61e5d5537ecb4b8fa6d233422da1d48e -->
<g id="edge20" class="edge">
<title>412b467af4834d8d9907b45971cf0403&#45;&gt;61e5d5537ecb4b8fa6d233422da1d48e</title>
<path fill="none" stroke="#7b8894" d="M1543.26,-813.3C1543.26,-813.3 1695.47,-813.3 1695.47,-813.3"/>
<polygon fill="#7b8894" stroke="#7b8894" points="1695.47,-816.8 1705.47,-813.3 1695.47,-809.8 1695.47,-816.8"/>
</g>
<!-- 412b467af4834d8d9907b45971cf0403&#45;&gt;7c20907fd9694e13833e3bb85d1bc3f6 -->
<g id="edge21" class="edge">
<title>412b467af4834d8d9907b45971cf0403&#45;&gt;7c20907fd9694e13833e3bb85d1bc3f6</title>
<path fill="none" stroke="#7b8894" d="M1517.65,-722.19C1517.65,-716.58 1517.65,-713 1517.65,-713 1517.65,-713 1740.65,-713 1740.65,-713 1740.65,-713 1740.65,-690.38 1740.65,-690.38"/>
<polygon fill="#7b8894" stroke="#7b8894" points="1744.15,-690.38 1740.65,-680.38 1737.15,-690.38 1744.15,-690.38"/>
</g>
<!-- 412b467af4834d8d9907b45971cf0403&#45;&gt;6e291c8809e449c187b6514c94c63d33 -->
<g id="edge32" class="edge">
<title>412b467af4834d8d9907b45971cf0403&#45;&gt;6e291c8809e449c187b6514c94c63d33</title>
<path fill="none" stroke="#7b8894" d="M1492.65,-858.83C1492.65,-959.1 1492.65,-1134.3 1492.65,-1134.3 1492.65,-1134.3 1959.53,-1134.3 1959.53,-1134.3"/>
<polygon fill="#7b8894" stroke="#7b8894" points="1959.53,-1137.8 1969.53,-1134.3 1959.53,-1130.8 1959.53,-1137.8"/>
<text xml:space="preserve" text-anchor="middle" x="1757.1" y="-982.65" font-family="Sans-Serif" font-size="13.00" fill="#2d3436">Saves/Loads State</text>
</g>
<!-- b99d7810eb0a458f8642fcd4223911d0&#45;&gt;bd95bfd2481a4918bc5e5e2223047f92 -->
<g id="edge22" class="edge">
<title>b99d7810eb0a458f8642fcd4223911d0&#45;&gt;bd95bfd2481a4918bc5e5e2223047f92</title>
<path fill="none" stroke="#7b8894" d="M1316.48,-703.9C1376.16,-703.9 1467.65,-703.9 1467.65,-703.9 1467.65,-703.9 1467.65,-690.38 1467.65,-690.38"/>
<polygon fill="#7b8894" stroke="#7b8894" points="1471.15,-690.38 1467.65,-680.38 1464.15,-690.38 1471.15,-690.38"/>
<text xml:space="preserve" text-anchor="middle" x="1379.55" y="-704.65" font-family="Sans-Serif" font-size="13.00" fill="#2d3436">Uses for PRF</text>
</g>
<!-- b99d7810eb0a458f8642fcd4223911d0&#45;&gt;412b467af4834d8d9907b45971cf0403 -->
<g id="edge23" class="edge">
<title>b99d7810eb0a458f8642fcd4223911d0&#45;&gt;412b467af4834d8d9907b45971cf0403</title>
<path fill="none" stroke="#7b8894" d="M1316.48,-786.7C1316.48,-786.7 1431.24,-786.7 1431.24,-786.7"/>
<polygon fill="#7b8894" stroke="#7b8894" points="1431.24,-790.2 1441.24,-786.7 1431.24,-783.2 1431.24,-790.2"/>
<text xml:space="preserve" text-anchor="middle" x="1379.55" y="-783.65" font-family="Sans-Serif" font-size="13.00" fill="#2d3436">Uses for PRF</text>
</g>
<!-- 7c20907fd9694e13833e3bb85d1bc3f6&#45;&gt;6e291c8809e449c187b6514c94c63d33 -->
<g id="edge33" class="edge">
<title>7c20907fd9694e13833e3bb85d1bc3f6&#45;&gt;6e291c8809e449c187b6514c94c63d33</title>
<path fill="none" stroke="#7b8894" d="M1807.26,-610.5C1887.95,-610.5 2037.65,-610.5 2037.65,-610.5 2037.65,-610.5 2037.65,-1087.26 2037.65,-1087.26"/>
<polygon fill="#7b8894" stroke="#7b8894" points="2034.15,-1087.26 2037.65,-1097.26 2041.15,-1087.26 2034.15,-1087.26"/>
<text xml:space="preserve" text-anchor="middle" x="1890.6" y="-776.65" font-family="Sans-Serif" font-size="13.00" fill="#2d3436">Saves/Loads State</text>
</g>
<!-- 6181745263a848d9b53f974c46f641b0&#45;&gt;bd95bfd2481a4918bc5e5e2223047f92 -->
<g id="edge24" class="edge">
<title>6181745263a848d9b53f974c46f641b0&#45;&gt;bd95bfd2481a4918bc5e5e2223047f92</title>
<path fill="none" stroke="#7b8894" d="M1068.78,-599.03C1068.78,-599.03 1442.69,-599.03 1442.69,-599.03"/>
<polygon fill="#7b8894" stroke="#7b8894" points="1068.78,-595.53 1058.78,-599.03 1068.78,-602.53 1068.78,-595.53"/>
<text xml:space="preserve" text-anchor="middle" x="1266.15" y="-527.65" font-family="Sans-Serif" font-size="13.00" fill="#2d3436">Evaluates</text>
</g>
<!-- 6181745263a848d9b53f974c46f641b0&#45;&gt;412b467af4834d8d9907b45971cf0403 -->
<g id="edge25" class="edge">
<title>6181745263a848d9b53f974c46f641b0&#45;&gt;412b467af4834d8d9907b45971cf0403</title>
<path fill="none" stroke="#7b8894" d="M1023.65,-707.34C1023.65,-707.34 1023.65,-853.2 1023.65,-853.2 1023.65,-853.2 1321.66,-853.2 1442.73,-853.2"/>
<polygon fill="#7b8894" stroke="#7b8894" points="1027.15,-707.34 1023.65,-697.34 1020.15,-707.34 1027.15,-707.34"/>
<text xml:space="preserve" text-anchor="middle" x="1266.15" y="-630.65" font-family="Sans-Serif" font-size="13.00" fill="#2d3436">Evaluates</text>
</g>
<!-- 6181745263a848d9b53f974c46f641b0&#45;&gt;61e5d5537ecb4b8fa6d233422da1d48e -->
<g id="edge26" class="edge">
<title>6181745263a848d9b53f974c46f641b0&#45;&gt;61e5d5537ecb4b8fa6d233422da1d48e</title>
<path fill="none" stroke="#7b8894" d="M990.65,-707.31C990.65,-707.31 990.65,-861.45 990.65,-861.45 990.65,-861.45 1756.65,-861.45 1756.65,-861.45 1756.65,-861.45 1756.65,-860.48 1756.65,-858.76"/>
<polygon fill="#7b8894" stroke="#7b8894" points="994.15,-707.31 990.65,-697.31 987.15,-707.31 994.15,-707.31"/>
<text xml:space="preserve" text-anchor="middle" x="1379.55" y="-502.65" font-family="Sans-Serif" font-size="13.00" fill="#2d3436">Evaluates</text>
</g>
<!-- 6181745263a848d9b53f974c46f641b0&#45;&gt;b99d7810eb0a458f8642fcd4223911d0 -->
<g id="edge27" class="edge">
<title>6181745263a848d9b53f974c46f641b0&#45;&gt;b99d7810eb0a458f8642fcd4223911d0</title>
<path fill="none" stroke="#7b8894" d="M1068.87,-689.1C1068.87,-689.1 1216.04,-689.1 1216.04,-689.1"/>
<polygon fill="#7b8894" stroke="#7b8894" points="1068.87,-685.6 1058.87,-689.1 1068.87,-692.6 1068.87,-685.6"/>
<text xml:space="preserve" text-anchor="middle" x="1136.63" y="-693.65" font-family="Sans-Serif" font-size="13.00" fill="#2d3436">Evaluates</text>
</g>
<!-- 6181745263a848d9b53f974c46f641b0&#45;&gt;7c20907fd9694e13833e3bb85d1bc3f6 -->
<g id="edge28" class="edge">
<title>6181745263a848d9b53f974c46f641b0&#45;&gt;7c20907fd9694e13833e3bb85d1bc3f6</title>
<path fill="none" stroke="#7b8894" d="M1006.65,-547.72C1006.65,-547.72 1006.65,-516.2 1006.65,-516.2 1006.65,-516.2 1773.65,-516.2 1773.65,-516.2 1773.65,-516.2 1773.65,-527.47 1773.65,-542.22"/>
<polygon fill="#7b8894" stroke="#7b8894" points="1003.15,-547.72 1006.65,-557.72 1010.15,-547.72 1003.15,-547.72"/>
<text xml:space="preserve" text-anchor="middle" x="1379.55" y="-437.65" font-family="Sans-Serif" font-size="13.00" fill="#2d3436">Evaluates</text>
</g>
<!-- 6181745263a848d9b53f974c46f641b0&#45;&gt;84b66faea1904e28ae52133ab0050606 -->
<g id="edge29" class="edge">
<title>6181745263a848d9b53f974c46f641b0&#45;&gt;84b66faea1904e28ae52133ab0050606</title>
<path fill="none" stroke="#7b8894" d="M1057.19,-692.5C1093.64,-692.5 1136.65,-692.5 1136.65,-692.5 1136.65,-692.5 1136.65,-1362.9 1136.65,-1362.9 1136.65,-1362.9 1959.64,-1362.9 1959.64,-1362.9"/>
<polygon fill="#7b8894" stroke="#7b8894" points="1959.64,-1366.4 1969.64,-1362.9 1959.64,-1359.4 1959.64,-1366.4"/>
<text xml:space="preserve" text-anchor="middle" x="1492.95" y="-1396.65" font-family="Sans-Serif" font-size="13.00" fill="#2d3436">Accesses</text>
</g>
<!-- 6181745263a848d9b53f974c46f641b0&#45;&gt;6e291c8809e449c187b6514c94c63d33 -->
<g id="edge30" class="edge">
<title>6181745263a848d9b53f974c46f641b0&#45;&gt;6e291c8809e449c187b6514c94c63d33</title>
<path fill="none" stroke="#7b8894" d="M973.65,-695.59C973.65,-765.46 973.65,-864 973.65,-864 973.65,-864 2004.65,-864 2004.65,-864 2004.65,-864 2004.65,-1087.4 2004.65,-1087.4"/>
<polygon fill="#7b8894" stroke="#7b8894" points="2001.15,-1087.4 2004.65,-1097.4 2008.15,-1087.4 2001.15,-1087.4"/>
<text xml:space="preserve" text-anchor="middle" x="1492.95" y="-1293.65" font-family="Sans-Serif" font-size="13.00" fill="#2d3436">Accesses</text>
</g>
</g>
</svg>
